<svg xmlns="http://www.w3.org/2000/svg" xmlns:xlink="http://www.w3.org/1999/xlink" width="321" zoomAndPan="magnify" viewBox="0 0 240.75 240.749995" height="321" preserveAspectRatio="xMidYMid meet" version="1.0"><defs><clipPath id="a650f16287"><path d="M 131 49.652344 L 180 49.652344 L 180 135 L 131 135 Z M 131 49.652344 " clip-rule="nonzero"/></clipPath><clipPath id="8500127c9d"><path d="M 62.210938 49.652344 L 183.585938 49.652344 L 183.585938 190.507812 L 62.210938 190.507812 Z M 62.210938 49.652344 " clip-rule="nonzero"/></clipPath></defs><g clip-path="url(#a650f16287)"><path fill="#1faa52" d="M 159.996094 134.867188 C 164.335938 132.007812 168.105469 128.507812 171.308594 124.375 C 176.875 117.199219 179.65625 107.917969 179.65625 96.523438 L 179.65625 96.121094 C 179.65625 81.507812 175 70.109375 165.679688 61.933594 C 157.203125 54.496094 145.660156 50.441406 131.039062 49.765625 L 158.699219 99.085938 L 135.804688 99.085938 Z M 159.996094 134.867188 " fill-opacity="1" fill-rule="nonzero"/></g><g clip-path="url(#8500127c9d)"><path fill="#0a2540" d="M 183.878906 190.433594 L 94.945312 85.1875 L 116.808594 85.1875 L 89.664062 49.664062 L 62.210938 49.664062 L 62.210938 190.433594 L 93.183594 190.433594 L 93.183594 145.390625 L 143.921875 190.433594 Z M 183.878906 190.433594 " fill-opacity="1" fill-rule="nonzero"/></g></svg>