<svg xmlns="http://www.w3.org/2000/svg" xmlns:xlink="http://www.w3.org/1999/xlink" width="291" zoomAndPan="magnify" viewBox="0 0 218.25 56.249996" height="75" preserveAspectRatio="xMidYMid meet" version="1.0"><defs><g/><clipPath id="e129326386"><path d="M 11 17.023438 L 19 17.023438 L 19 30 L 11 30 Z M 11 17.023438 " clip-rule="nonzero"/></clipPath><clipPath id="a639c0386a"><path d="M 1.066406 17.023438 L 19.570312 17.023438 L 19.570312 38.484375 L 1.066406 38.484375 Z M 1.066406 17.023438 " clip-rule="nonzero"/></clipPath></defs><g fill="#ffffff" fill-opacity="1"><g transform="translate(19.728475, 38.057989)"><g><path d="M 10.09375 0.4375 C 8.351562 0.4375 6.8125 0.0703125 5.46875 -0.65625 C 4.125 -1.382812 3.078125 -2.394531 2.328125 -3.6875 C 1.585938 -4.988281 1.21875 -6.488281 1.21875 -8.1875 C 1.21875 -9.894531 1.59375 -11.390625 2.34375 -12.671875 C 3.101562 -13.960938 4.15625 -14.972656 5.5 -15.703125 C 6.84375 -16.429688 8.394531 -16.796875 10.15625 -16.796875 C 12.03125 -16.796875 13.644531 -16.378906 15 -15.546875 C 16.363281 -14.710938 17.398438 -13.546875 18.109375 -12.046875 C 18.828125 -10.554688 19.132812 -8.816406 19.03125 -6.828125 L 5.921875 -6.828125 C 6.148438 -5.703125 6.644531 -4.84375 7.40625 -4.25 C 8.175781 -3.65625 9.101562 -3.359375 10.1875 -3.359375 C 10.976562 -3.359375 11.695312 -3.507812 12.34375 -3.8125 C 13 -4.113281 13.523438 -4.535156 13.921875 -5.078125 L 18.71875 -5.078125 C 18.019531 -3.359375 16.910156 -2.007812 15.390625 -1.03125 C 13.867188 -0.0507812 12.101562 0.4375 10.09375 0.4375 Z M 5.953125 -9.8125 L 14.453125 -9.8125 C 14.179688 -10.8125 13.675781 -11.59375 12.9375 -12.15625 C 12.207031 -12.726562 11.289062 -13.015625 10.1875 -13.015625 C 9.144531 -13.015625 8.242188 -12.726562 7.484375 -12.15625 C 6.734375 -11.59375 6.222656 -10.8125 5.953125 -9.8125 Z M 5.953125 -9.8125 "/></g></g></g><g fill="#ffffff" fill-opacity="1"><g transform="translate(38.078314, 38.057989)"><g><path d="M 9.53125 0.4375 C 7.914062 0.4375 6.484375 0.0664062 5.234375 -0.671875 C 3.984375 -1.410156 3 -2.425781 2.28125 -3.71875 C 1.570312 -5.019531 1.21875 -6.507812 1.21875 -8.1875 C 1.21875 -9.875 1.570312 -11.359375 2.28125 -12.640625 C 3 -13.929688 3.984375 -14.945312 5.234375 -15.6875 C 6.484375 -16.425781 7.914062 -16.796875 9.53125 -16.796875 C 10.550781 -16.796875 11.492188 -16.644531 12.359375 -16.34375 C 13.234375 -16.039062 14.023438 -15.617188 14.734375 -15.078125 L 14.734375 -23.0625 L 19.46875 -23.0625 L 19.46875 0 L 15.953125 0 L 15.390625 -1.875 C 14.660156 -1.144531 13.796875 -0.578125 12.796875 -0.171875 C 11.804688 0.234375 10.71875 0.4375 9.53125 0.4375 Z M 5.890625 -8.1875 C 5.890625 -6.863281 6.304688 -5.773438 7.140625 -4.921875 C 7.984375 -4.066406 9.070312 -3.640625 10.40625 -3.640625 C 11.738281 -3.640625 12.816406 -4.066406 13.640625 -4.921875 C 14.472656 -5.773438 14.890625 -6.863281 14.890625 -8.1875 C 14.890625 -9.519531 14.472656 -10.613281 13.640625 -11.46875 C 12.816406 -12.320312 11.738281 -12.75 10.40625 -12.75 C 9.070312 -12.75 7.984375 -12.320312 7.140625 -11.46875 C 6.304688 -10.613281 5.890625 -9.519531 5.890625 -8.1875 Z M 5.890625 -8.1875 "/></g></g></g><g fill="#ffffff" fill-opacity="1"><g transform="translate(58.048206, 38.057989)"><g><path d="M 8.875 0.4375 C 6.757812 0.4375 5.09375 -0.226562 3.875 -1.5625 C 2.664062 -2.90625 2.0625 -4.710938 2.0625 -6.984375 L 2.0625 -16.359375 L 6.796875 -16.359375 L 6.796875 -7.453125 C 6.796875 -6.242188 7.078125 -5.304688 7.640625 -4.640625 C 8.210938 -3.972656 9 -3.640625 10 -3.640625 C 11.082031 -3.640625 11.941406 -4.015625 12.578125 -4.765625 C 13.222656 -5.515625 13.546875 -6.53125 13.546875 -7.8125 L 13.546875 -16.359375 L 18.28125 -16.359375 L 18.28125 0 L 14.765625 0 L 14.265625 -1.84375 C 13.617188 -1.070312 12.828125 -0.5 11.890625 -0.125 C 10.960938 0.25 9.957031 0.4375 8.875 0.4375 Z M 8.875 0.4375 "/></g></g></g><g fill="#ffffff" fill-opacity="1"><g transform="translate(76.834212, 38.057989)"><g><path d="M 10.15625 0.4375 C 8.414062 0.4375 6.867188 0.0664062 5.515625 -0.671875 C 4.160156 -1.410156 3.101562 -2.425781 2.34375 -3.71875 C 1.59375 -5.019531 1.21875 -6.507812 1.21875 -8.1875 C 1.21875 -9.875 1.59375 -11.359375 2.34375 -12.640625 C 3.101562 -13.929688 4.160156 -14.945312 5.515625 -15.6875 C 6.867188 -16.425781 8.414062 -16.796875 10.15625 -16.796875 C 11.675781 -16.796875 13.050781 -16.519531 14.28125 -15.96875 C 15.519531 -15.414062 16.539062 -14.632812 17.34375 -13.625 C 18.15625 -12.625 18.6875 -11.445312 18.9375 -10.09375 L 14.390625 -10.09375 C 13.992188 -10.925781 13.429688 -11.578125 12.703125 -12.046875 C 11.984375 -12.515625 11.15625 -12.75 10.21875 -12.75 C 8.945312 -12.75 7.90625 -12.328125 7.09375 -11.484375 C 6.289062 -10.640625 5.890625 -9.539062 5.890625 -8.1875 C 5.890625 -6.863281 6.289062 -5.773438 7.09375 -4.921875 C 7.90625 -4.066406 8.945312 -3.640625 10.21875 -3.640625 C 11.21875 -3.640625 12.09375 -3.90625 12.84375 -4.4375 C 13.601562 -4.96875 14.148438 -5.679688 14.484375 -6.578125 L 19.09375 -6.578125 C 18.800781 -5.140625 18.242188 -3.894531 17.421875 -2.84375 C 16.609375 -1.800781 15.578125 -0.992188 14.328125 -0.421875 C 13.085938 0.148438 11.695312 0.4375 10.15625 0.4375 Z M 10.15625 0.4375 "/></g></g></g><g fill="#ffffff" fill-opacity="1"><g transform="translate(95.215208, 38.057989)"><g><path d="M 10.09375 0.4375 C 8.351562 0.4375 6.8125 0.0703125 5.46875 -0.65625 C 4.125 -1.382812 3.078125 -2.394531 2.328125 -3.6875 C 1.585938 -4.988281 1.21875 -6.488281 1.21875 -8.1875 C 1.21875 -9.894531 1.59375 -11.390625 2.34375 -12.671875 C 3.101562 -13.960938 4.15625 -14.972656 5.5 -15.703125 C 6.84375 -16.429688 8.394531 -16.796875 10.15625 -16.796875 C 12.03125 -16.796875 13.644531 -16.378906 15 -15.546875 C 16.363281 -14.710938 17.398438 -13.546875 18.109375 -12.046875 C 18.828125 -10.554688 19.132812 -8.816406 19.03125 -6.828125 L 5.921875 -6.828125 C 6.148438 -5.703125 6.644531 -4.84375 7.40625 -4.25 C 8.175781 -3.65625 9.101562 -3.359375 10.1875 -3.359375 C 10.976562 -3.359375 11.695312 -3.507812 12.34375 -3.8125 C 13 -4.113281 13.523438 -4.535156 13.921875 -5.078125 L 18.71875 -5.078125 C 18.019531 -3.359375 16.910156 -2.007812 15.390625 -1.03125 C 13.867188 -0.0507812 12.101562 0.4375 10.09375 0.4375 Z M 5.953125 -9.8125 L 14.453125 -9.8125 C 14.179688 -10.8125 13.675781 -11.59375 12.9375 -12.15625 C 12.207031 -12.726562 11.289062 -13.015625 10.1875 -13.015625 C 9.144531 -13.015625 8.242188 -12.726562 7.484375 -12.15625 C 6.734375 -11.59375 6.222656 -10.8125 5.953125 -9.8125 Z M 5.953125 -9.8125 "/></g></g></g><g fill="#ffffff" fill-opacity="1"><g transform="translate(113.565045, 38.057989)"><g><path d="M 10.15625 0.4375 C 8.414062 0.4375 6.867188 0.0664062 5.515625 -0.671875 C 4.160156 -1.410156 3.101562 -2.425781 2.34375 -3.71875 C 1.59375 -5.019531 1.21875 -6.507812 1.21875 -8.1875 C 1.21875 -9.875 1.59375 -11.359375 2.34375 -12.640625 C 3.101562 -13.929688 4.160156 -14.945312 5.515625 -15.6875 C 6.867188 -16.425781 8.414062 -16.796875 10.15625 -16.796875 C 11.675781 -16.796875 13.050781 -16.519531 14.28125 -15.96875 C 15.519531 -15.414062 16.539062 -14.632812 17.34375 -13.625 C 18.15625 -12.625 18.6875 -11.445312 18.9375 -10.09375 L 14.390625 -10.09375 C 13.992188 -10.925781 13.429688 -11.578125 12.703125 -12.046875 C 11.984375 -12.515625 11.15625 -12.75 10.21875 -12.75 C 8.945312 -12.75 7.90625 -12.328125 7.09375 -11.484375 C 6.289062 -10.640625 5.890625 -9.539062 5.890625 -8.1875 C 5.890625 -6.863281 6.289062 -5.773438 7.09375 -4.921875 C 7.90625 -4.066406 8.945312 -3.640625 10.21875 -3.640625 C 11.21875 -3.640625 12.09375 -3.90625 12.84375 -4.4375 C 13.601562 -4.96875 14.148438 -5.679688 14.484375 -6.578125 L 19.09375 -6.578125 C 18.800781 -5.140625 18.242188 -3.894531 17.421875 -2.84375 C 16.609375 -1.800781 15.578125 -0.992188 14.328125 -0.421875 C 13.085938 0.148438 11.695312 0.4375 10.15625 0.4375 Z M 10.15625 0.4375 "/></g></g></g><g fill="#ffffff" fill-opacity="1"><g transform="translate(131.946046, 38.057989)"><g><path d="M 2.375 0 L 2.375 -23.0625 L 7.109375 -23.0625 L 7.109375 -15.109375 C 7.722656 -15.671875 8.445312 -16.09375 9.28125 -16.375 C 10.113281 -16.65625 10.988281 -16.796875 11.90625 -16.796875 C 14.019531 -16.796875 15.675781 -16.140625 16.875 -14.828125 C 18.082031 -13.523438 18.6875 -11.726562 18.6875 -9.4375 L 18.6875 0 L 13.953125 0 L 13.953125 -8.96875 C 13.953125 -10.175781 13.664062 -11.109375 13.09375 -11.765625 C 12.53125 -12.421875 11.738281 -12.75 10.71875 -12.75 C 9.632812 -12.75 8.757812 -12.378906 8.09375 -11.640625 C 7.4375 -10.898438 7.109375 -9.882812 7.109375 -8.59375 L 7.109375 0 Z M 2.375 0 "/></g></g></g><g fill="#ffffff" fill-opacity="1"><g transform="translate(150.82552, 38.057989)"><g><path d="M 8.875 0.4375 C 6.757812 0.4375 5.09375 -0.226562 3.875 -1.5625 C 2.664062 -2.90625 2.0625 -4.710938 2.0625 -6.984375 L 2.0625 -16.359375 L 6.796875 -16.359375 L 6.796875 -7.453125 C 6.796875 -6.242188 7.078125 -5.304688 7.640625 -4.640625 C 8.210938 -3.972656 9 -3.640625 10 -3.640625 C 11.082031 -3.640625 11.941406 -4.015625 12.578125 -4.765625 C 13.222656 -5.515625 13.546875 -6.53125 13.546875 -7.8125 L 13.546875 -16.359375 L 18.28125 -16.359375 L 18.28125 0 L 14.765625 0 L 14.265625 -1.84375 C 13.617188 -1.070312 12.828125 -0.5 11.890625 -0.125 C 10.960938 0.25 9.957031 0.4375 8.875 0.4375 Z M 8.875 0.4375 "/></g></g></g><g fill="#ffffff" fill-opacity="1"><g transform="translate(169.61153, 38.057989)"><g><path d="M 2.375 0 L 2.375 -16.359375 L 5.890625 -16.359375 L 6.515625 -14.171875 C 7.054688 -14.941406 7.71875 -15.5 8.5 -15.84375 C 9.289062 -16.1875 10.289062 -16.359375 11.5 -16.359375 L 13.265625 -16.359375 L 13.265625 -12.0625 L 11.46875 -12.0625 C 10.113281 -12.0625 9.046875 -11.695312 8.265625 -10.96875 C 7.492188 -10.238281 7.109375 -8.992188 7.109375 -7.234375 L 7.109375 0 Z M 2.375 0 "/></g></g></g><g fill="#ffffff" fill-opacity="1"><g transform="translate(182.073094, 38.057989)"><g><path d="M 2.375 0 L 2.375 -16.359375 L 5.890625 -16.359375 L 6.390625 -14.515625 C 7.054688 -15.285156 7.859375 -15.859375 8.796875 -16.234375 C 9.742188 -16.609375 10.757812 -16.796875 11.84375 -16.796875 C 13.976562 -16.796875 15.648438 -16.128906 16.859375 -14.796875 C 18.078125 -13.472656 18.6875 -11.675781 18.6875 -9.40625 L 18.6875 0 L 13.953125 0 L 13.953125 -8.90625 C 13.953125 -10.113281 13.664062 -11.054688 13.09375 -11.734375 C 12.53125 -12.410156 11.738281 -12.75 10.71875 -12.75 C 9.632812 -12.75 8.757812 -12.375 8.09375 -11.625 C 7.4375 -10.875 7.109375 -9.851562 7.109375 -8.5625 L 7.109375 0 Z M 2.375 0 "/></g></g></g><g clip-path="url(#e129326386)"><path fill="#1faa52" d="M 15.890625 29.9375 C 16.546875 29.503906 17.117188 28.972656 17.605469 28.347656 C 18.445312 27.257812 18.871094 25.851562 18.871094 24.125 L 18.871094 24.0625 C 18.871094 21.847656 18.164062 20.121094 16.75 18.882812 C 15.464844 17.753906 13.714844 17.140625 11.5 17.039062 L 15.691406 24.511719 L 12.222656 24.511719 Z M 15.890625 29.9375 " fill-opacity="1" fill-rule="nonzero"/></g><g clip-path="url(#a639c0386a)"><path fill="#ffffff" d="M 19.507812 38.359375 L 6.027344 22.40625 L 9.34375 22.40625 L 5.230469 17.023438 L 1.066406 17.023438 L 1.066406 38.359375 L 5.761719 38.359375 L 5.761719 31.53125 L 13.453125 38.359375 Z M 19.507812 38.359375 " fill-opacity="1" fill-rule="nonzero"/></g></svg>